<?xml version="1.0" standalone="no"?>
<!DOCTYPE svg PUBLIC "-//W3C//DTD SVG 20010904//EN"
 "http://www.w3.org/TR/2001/REC-SVG-20010904/DTD/svg10.dtd">
<svg version="1.0" xmlns="http://www.w3.org/2000/svg"
 width="427.000000pt" height="416.000000pt" viewBox="0 0 427.000000 416.000000"
 preserveAspectRatio="xMidYMid meet">

<g transform="translate(0.000000,416.000000) scale(0.100000,-0.100000)"
fill="#000000" stroke="none">
<path d="M2081 3032 c-93 -47 -128 -160 -77 -247 34 -57 86 -85 158 -85 96 0
168 75 168 175 0 128 -138 214 -249 157z m130 -101 c69 -70 -2 -171 -96 -135
-19 8 -45 55 -45 84 0 31 53 80 85 80 16 0 38 -12 56 -29z"/>
<path d="M1652 2680 c-57 -12 -120 -48 -217 -123 -99 -78 -129 -119 -120 -167
9 -52 64 -100 114 -100 34 0 55 12 148 81 l108 81 58 -5 c32 -3 61 -7 63 -10
2 -2 -30 -85 -73 -183 -89 -209 -99 -259 -63 -341 12 -28 33 -62 48 -76 15
-13 104 -70 199 -126 169 -99 171 -101 164 -128 -5 -16 -29 -94 -55 -174 -25
-80 -46 -159 -46 -176 0 -49 65 -113 115 -113 31 0 81 30 97 58 28 49 138 418
138 463 0 80 -29 113 -177 201 -73 44 -133 85 -133 92 0 23 105 273 115 274 6
0 30 -38 55 -86 29 -55 59 -97 83 -116 l39 -31 152 -3 c144 -3 153 -2 180 19
51 40 67 115 33 159 -31 41 -59 50 -162 50 l-101 0 -17 35 -17 35 338 1 c185
1 351 4 367 8 l30 6 0 105 c0 103 0 104 -25 111 -14 4 -211 7 -438 8 l-413 1
-32 24 c-51 38 -83 51 -252 101 -170 50 -234 59 -303 45z m238 -122 c58 -17
112 -34 120 -39 32 -18 -131 -9 -204 11 -105 29 -144 19 -265 -72 -100 -75
-125 -85 -128 -53 -4 30 176 160 248 179 63 17 89 14 229 -26z m126 -124 c46
-20 84 -39 84 -43 0 -8 -242 -112 -248 -106 -5 4 69 185 76 185 2 0 41 -16 88
-36z m1042 -38 c2 -32 -1 -52 -10 -57 -7 -5 -167 -9 -355 -9 l-343 0 -30 60
-30 60 382 -2 383 -3 3 -49z m-824 -42 c9 -23 8 -24 -18 -24 -32 0 -42 16 -19
29 25 14 30 13 37 -5z m-187 -96 c-3 -7 -37 -93 -76 -192 -40 -98 -71 -180
-69 -181 2 -1 74 -44 161 -95 87 -51 162 -101 167 -111 17 -30 12 -54 -52
-260 -51 -164 -65 -199 -80 -199 -10 0 -21 6 -23 13 -3 6 24 103 59 215 l64
202 -206 123 c-113 67 -214 134 -224 148 -43 58 -36 102 51 302 l20 47 107 0
c81 0 105 -3 101 -12z m268 -68 l39 -80 124 0 c122 0 123 0 120 -22 -3 -22 -7
-23 -122 -26 -94 -2 -123 1 -142 13 -13 8 -44 56 -69 105 l-45 90 28 0 c25 0
32 -8 67 -80z"/>
<path d="M1531 1781 l-24 -61 -148 0 c-142 0 -148 -1 -177 -25 -65 -55 -65
-145 1 -185 29 -18 51 -20 220 -20 204 0 223 4 268 57 13 16 33 48 44 72 l19
44 -24 16 c-33 22 -123 111 -140 139 -15 23 -15 22 -39 -37z m89 -153 c0 -3
-12 -16 -26 -27 -25 -19 -40 -21 -194 -21 -133 0 -169 3 -173 14 -12 30 16 36
179 36 136 0 163 2 168 15 5 13 9 13 26 3 11 -7 20 -16 20 -20z"/>
</g>
</svg>
